<?xml version="1.0" encoding="UTF-8" standalone="no"?>
<!DOCTYPE svg PUBLIC "-//W3C//DTD SVG 1.1//EN" "http://www.w3.org/Graphics/SVG/1.1/DTD/svg11.dtd">
<svg width="100%" height="100%" viewBox="0 0 32 16" version="1.1" xmlns="http://www.w3.org/2000/svg" xmlns:xlink="http://www.w3.org/1999/xlink" xml:space="preserve" xmlns:serif="http://www.serif.com/" style="fill-rule:evenodd;clip-rule:evenodd;stroke-linejoin:round;stroke-miterlimit:2;">
    <g transform="matrix(1.11934,0,0,1.11934,1.8098,13.5667)">
        <g>
            <g>
                <path d="M1.34,-8.743C1.914,-9.636 2.774,-10.083 3.92,-10.083C5.067,-10.083 5.927,-9.636 6.501,-8.743C7.075,-7.85 7.362,-6.592 7.362,-4.97C7.362,-3.347 7.075,-2.091 6.501,-1.2C5.927,-0.309 5.067,0.137 3.92,0.137C2.774,0.137 1.914,-0.309 1.34,-1.2C0.766,-2.091 0.479,-3.347 0.479,-4.97C0.479,-6.592 0.766,-7.85 1.34,-8.743ZM2.652,-2.352C2.908,-1.773 3.329,-1.483 3.917,-1.483C4.505,-1.483 4.928,-1.773 5.185,-2.352C5.443,-2.93 5.571,-3.803 5.571,-4.97C5.571,-6.136 5.443,-7.009 5.185,-7.588C4.928,-8.167 4.505,-8.456 3.917,-8.456C3.329,-8.456 2.908,-8.167 2.652,-7.588C2.397,-7.009 2.27,-6.136 2.27,-4.97C2.27,-3.803 2.397,-2.93 2.652,-2.352Z" style="fill:rgb(132,0,255);fill-rule:nonzero;"/>
                <path d="M8.504,-9.939L11.601,-9.939C12.544,-9.939 13.263,-9.655 13.757,-9.085C14.252,-8.515 14.499,-7.695 14.499,-6.624C14.499,-4.897 13.884,-3.842 12.653,-3.459L12.653,-3.343C12.877,-2.568 13.071,-2.074 13.238,-1.859C13.404,-1.645 13.688,-1.538 14.089,-1.538C14.312,-1.538 14.476,-1.543 14.581,-1.552L14.581,-0.068C14.294,0.014 13.986,0.055 13.658,0.055C13.266,0.055 12.961,0.025 12.742,-0.034C12.523,-0.093 12.306,-0.245 12.089,-0.489C11.873,-0.733 11.686,-1.064 11.529,-1.483C11.372,-1.903 11.186,-2.504 10.972,-3.288L10.268,-3.288L10.268,0L8.504,0L8.504,-9.939ZM10.268,-8.285L10.268,-4.929L11.416,-4.929C11.863,-4.929 12.19,-5.062 12.397,-5.329C12.604,-5.595 12.708,-6.022 12.708,-6.61C12.708,-7.189 12.603,-7.613 12.394,-7.882C12.184,-8.151 11.858,-8.285 11.416,-8.285L10.268,-8.285Z" style="fill:rgb(132,0,255);fill-rule:nonzero;"/>
                <path d="M17.124,-9.939L20.371,-9.939L22.306,0L20.501,0L20.022,-2.522L17.445,-2.522L16.974,0L15.189,0L17.124,-9.939ZM18.498,-8.285L17.739,-4.115L19.729,-4.115L18.956,-8.285L18.498,-8.285Z" style="fill:rgb(132,0,255);fill-rule:nonzero;"/>
                <rect x="23.112" y="-9.939" width="1.764" height="9.939" style="fill:rgb(132,0,255);fill-rule:nonzero;"/>
            </g>
        </g>
    </g>
</svg>
