<?xml version="1.0" encoding="UTF-8" standalone="no"?>
<!DOCTYPE svg PUBLIC "-//W3C//DTD SVG 1.1//EN" "http://www.w3.org/Graphics/SVG/1.1/DTD/svg11.dtd">
<svg width="100%" height="100%" viewBox="0 0 201 40" version="1.1" xmlns="http://www.w3.org/2000/svg" xmlns:xlink="http://www.w3.org/1999/xlink" xml:space="preserve" xmlns:serif="http://www.serif.com/" style="fill-rule:evenodd;clip-rule:evenodd;stroke-linejoin:round;stroke-miterlimit:2;">
    <g transform="matrix(1,0,0,1,-3.47838,1.44327)">
        <g transform="matrix(3.47075,0,0,3.47075,12.6686,35.8173)">
            <path d="M1.34,-8.743C1.914,-9.636 2.774,-10.083 3.92,-10.083C5.067,-10.083 5.927,-9.636 6.501,-8.743C7.075,-7.85 7.362,-6.592 7.362,-4.97C7.362,-3.347 7.075,-2.091 6.501,-1.2C5.927,-0.309 5.067,0.137 3.92,0.137C2.774,0.137 1.914,-0.309 1.34,-1.2C0.766,-2.091 0.479,-3.347 0.479,-4.97C0.479,-6.592 0.766,-7.85 1.34,-8.743ZM2.652,-2.352C2.908,-1.773 3.329,-1.483 3.917,-1.483C4.505,-1.483 4.928,-1.773 5.185,-2.352C5.443,-2.93 5.571,-3.803 5.571,-4.97C5.571,-6.136 5.443,-7.009 5.185,-7.588C4.928,-8.167 4.505,-8.456 3.917,-8.456C3.329,-8.456 2.908,-8.167 2.652,-7.588C2.397,-7.009 2.27,-6.136 2.27,-4.97C2.27,-3.803 2.397,-2.93 2.652,-2.352Z" style="fill:rgb(132,0,255);fill-rule:nonzero;"/>
            <path d="M8.504,-9.939L11.601,-9.939C12.544,-9.939 13.263,-9.655 13.757,-9.085C14.252,-8.515 14.499,-7.695 14.499,-6.624C14.499,-4.897 13.884,-3.842 12.653,-3.459L12.653,-3.343C12.877,-2.568 13.071,-2.074 13.238,-1.859C13.404,-1.645 13.688,-1.538 14.089,-1.538C14.312,-1.538 14.476,-1.543 14.581,-1.552L14.581,-0.068C14.294,0.014 13.986,0.055 13.658,0.055C13.266,0.055 12.961,0.025 12.742,-0.034C12.523,-0.093 12.306,-0.245 12.089,-0.489C11.873,-0.733 11.686,-1.064 11.529,-1.483C11.372,-1.903 11.186,-2.504 10.972,-3.288L10.268,-3.288L10.268,0L8.504,0L8.504,-9.939ZM10.268,-8.285L10.268,-4.929L11.416,-4.929C11.863,-4.929 12.19,-5.062 12.397,-5.329C12.604,-5.595 12.708,-6.022 12.708,-6.61C12.708,-7.189 12.603,-7.613 12.394,-7.882C12.184,-8.151 11.858,-8.285 11.416,-8.285L10.268,-8.285Z" style="fill:rgb(132,0,255);fill-rule:nonzero;"/>
            <path d="M17.124,-9.939L20.371,-9.939L22.306,0L20.501,0L20.022,-2.522L17.445,-2.522L16.974,0L15.189,0L17.124,-9.939ZM18.498,-8.285L17.739,-4.115L19.729,-4.115L18.956,-8.285L18.498,-8.285Z" style="fill:rgb(132,0,255);fill-rule:nonzero;"/>
            <rect x="23.112" y="-9.939" width="1.764" height="9.939" style="fill:rgb(132,0,255);fill-rule:nonzero;"/>
        </g>
        <g transform="matrix(3.47075,0,0,3.47075,97.0881,-9.64611)">
            <g transform="matrix(1,0,0,1,3.78,13.078)">
                <path d="M3.391,-10.035C4.156,-10.035 4.808,-9.976 5.346,-9.857L5.346,-8.907C4.712,-8.971 4.102,-9.003 3.514,-9.003C2.889,-9.003 2.435,-8.867 2.15,-8.596C1.865,-8.325 1.723,-7.896 1.723,-7.308C1.723,-6.747 1.818,-6.348 2.01,-6.111C2.201,-5.874 2.554,-5.708 3.069,-5.612L3.78,-5.489C4.491,-5.366 5,-5.095 5.308,-4.676C5.616,-4.257 5.77,-3.593 5.77,-2.687C5.77,-1.761 5.51,-1.066 4.99,-0.602C4.471,-0.137 3.721,0.096 2.741,0.096C1.939,0.096 1.249,0.036 0.67,-0.082L0.67,-1.053C1.285,-0.98 1.935,-0.941 2.618,-0.937C3.953,-0.937 4.621,-1.529 4.621,-2.714C4.621,-3.311 4.525,-3.729 4.334,-3.968C4.143,-4.208 3.771,-4.377 3.22,-4.478L2.509,-4.607C1.875,-4.721 1.392,-4.993 1.06,-5.421C0.727,-5.849 0.561,-6.487 0.561,-7.335C0.561,-8.215 0.796,-8.884 1.268,-9.345C1.74,-9.805 2.447,-10.035 3.391,-10.035Z" style="fill:rgb(132,0,255);"/>
            </g>
            <g transform="matrix(1,0,0,1,3.78,13.078)">
                <path d="M7.007,-6.891L8.087,-6.891L8.087,-2.393C8.087,-1.878 8.183,-1.502 8.374,-1.265C8.565,-1.028 8.862,-0.909 9.263,-0.909C10.065,-0.909 10.466,-1.422 10.466,-2.447L10.466,-6.891L11.546,-6.891L11.546,0L10.534,0L10.521,-0.643L10.411,-0.643C10.092,-0.16 9.598,0.082 8.928,0.082C7.647,0.082 7.007,-0.668 7.007,-2.167L7.007,-6.891Z" style="fill:rgb(132,0,255);"/>
            </g>
            <g transform="matrix(1,0,0,1,3.78,13.078)">
                <path d="M12.995,-6.891L14.075,-6.891L14.075,0L12.995,0L12.995,-6.891ZM13.019,-9.464C13.153,-9.594 13.328,-9.659 13.542,-9.659C13.756,-9.659 13.929,-9.594 14.062,-9.464C14.194,-9.334 14.26,-9.162 14.26,-8.948C14.26,-8.734 14.194,-8.561 14.062,-8.429C13.929,-8.297 13.756,-8.23 13.542,-8.23C13.328,-8.23 13.153,-8.297 13.019,-8.429C12.885,-8.561 12.817,-8.734 12.817,-8.948C12.817,-9.162 12.885,-9.334 13.019,-9.464Z" style="fill:rgb(132,0,255);"/>
            </g>
            <g transform="matrix(1,0,0,1,3.78,13.078)">
                <path d="M15.012,-6.891L15.935,-6.891L15.962,-9.058L17.001,-9.058L17.001,-6.891L18.765,-6.891L18.765,-5.906L17.001,-5.906L17.001,-2.283C17.001,-1.786 17.084,-1.438 17.25,-1.237C17.417,-1.037 17.701,-0.937 18.102,-0.937C18.298,-0.937 18.528,-0.946 18.792,-0.964L18.792,-0.014C18.541,0.032 18.234,0.055 17.869,0.055C17.186,0.055 16.692,-0.12 16.389,-0.468C16.086,-0.817 15.935,-1.395 15.935,-2.201L15.935,-5.906L15.012,-5.906L15.012,-6.891Z" style="fill:rgb(132,0,255);"/>
            </g>
            <g transform="matrix(1,0,0,1,22.777,13.078)">
                <path d="M2.844,-7C3.573,-7 4.121,-6.686 4.488,-6.057C4.855,-5.428 5.038,-4.607 5.038,-3.596C5.038,-3.295 5.034,-3.085 5.024,-2.967L1.579,-2.967C1.616,-2.238 1.758,-1.703 2.006,-1.364C2.255,-1.024 2.668,-0.854 3.247,-0.854C3.648,-0.854 4.147,-0.9 4.744,-0.991L4.744,-0.123C4.247,0.036 3.712,0.114 3.138,0.109C2.194,0.109 1.52,-0.196 1.114,-0.807C0.709,-1.417 0.506,-2.297 0.506,-3.445C0.506,-4.557 0.702,-5.428 1.094,-6.057C1.486,-6.686 2.069,-7 2.844,-7ZM2.83,-6.036C2.064,-6.036 1.643,-5.321 1.565,-3.89L3.979,-3.89C3.933,-5.321 3.55,-6.036 2.83,-6.036Z" style="fill:rgb(132,0,255);"/>
            </g>
        </g>
    </g>
</svg>
